<?xml version="1.0" standalone="no"?><!DOCTYPE svg PUBLIC "-//W3C//DTD SVG 1.1//EN" "http://www.w3.org/Graphics/SVG/1.1/DTD/svg11.dtd"><svg t="1592816897547" class="icon" viewBox="0 0 1025 1024" version="1.1" xmlns="http://www.w3.org/2000/svg" p-id="5304" xmlns:xlink="http://www.w3.org/1999/xlink" width="200.1953125" height="200"><defs><style type="text/css"></style></defs><path d="M651.684145 237.947901c-36.314861 36.314861-35.649406 95.825603 1.473509 132.948518 37.122915 37.122915 96.633656 37.78837 132.948518 1.473509 36.314861-36.314861 35.649406-95.825603-1.473509-132.948518C747.509749 202.298495 687.951474 201.63304 651.684145 237.947901zM752.500665 338.764421c-18.157431 18.157431-47.912802 17.824703-66.450493-0.760521-18.585224-18.585224-18.917951-48.340594-0.760521-66.498025 18.157431-18.157431 47.912802-17.824703 66.450493 0.760521C770.325368 290.85162 770.658096 320.606991 752.500665 338.764421z" p-id="5305"></path><path d="M966.729829 32.322128 519.876409 0 6.715094 513.161315c-9.078715 9.078715-8.936118 23.956401 0.332728 33.225246l470.619691 470.619691c9.268846 9.268846 24.241596 9.268846 33.177714 0.332728l513.161315-513.161315-32.322128-446.85342C990.828827 44.442926 979.373485 33.225246 966.729829 32.322128zM510.132238 950.840955c-9.221313 9.17378-24.003933 8.888585-33.320311-0.427793l-403.218547-403.218547c-9.268846-9.268846-9.506508-24.241596-0.427793-33.320311l469.336312-469.336312 375.792271 35.411743c12.786254 1.188314 24.479259 12.738721 25.715105 25.715105l35.411743 375.792271L510.132238 950.840955z" p-id="5306"></path></svg>